<svg width="436" height="473" viewBox="0 0 436 473" fill="none" xmlns="http://www.w3.org/2000/svg">
<g clip-path="url(#clip0_101_4068)">
<path d="M207.255 425.335C295.393 425.335 366.844 353.887 366.844 265.752C366.844 177.616 295.393 106.168 207.255 106.168C119.117 106.168 47.6665 177.616 47.6665 265.752C47.6665 353.887 119.117 425.335 207.255 425.335Z" fill="#1E347D"/>
<path d="M92.4829 374.294V307.596C92.4829 303.179 96.062 299.6 100.479 299.6C104.897 299.6 108.476 303.179 108.476 307.596V374.294" fill="white"/>
<path d="M108.479 374.294V349.226C108.479 344.808 112.059 341.229 116.476 341.229C120.893 341.229 124.472 344.808 124.472 349.226V374.294" fill="white"/>
<path d="M92.4829 374.298L71.7765 353.502C68.6536 350.368 63.5813 350.364 60.4545 353.491C57.3355 356.61 57.3316 361.662 60.4428 364.789L65.1096 369.475C75.3985 379.807 81.1765 393.795 81.1765 408.376V420.742C81.1765 424.442 82.0849 428.084 83.8238 431.347C87.742 438.707 95.4031 443.308 103.746 443.308H132.141C139.038 443.308 145.557 440.154 149.838 434.746L151.592 432.528C154.75 428.54 156.466 423.604 156.466 418.52V374.294V370.395C156.466 365.978 152.887 362.399 148.469 362.399C144.052 362.399 140.473 365.978 140.473 370.395V374.294" fill="white"/>
<path d="M124.472 374.294V359.81C124.472 355.393 128.051 351.814 132.469 351.814C136.886 351.814 140.465 355.393 140.465 359.81V374.294" fill="white"/>
<path d="M141.873 466.049H93.0093C91.4108 466.049 90.1165 464.754 90.1165 463.156V446.318C90.1165 444.719 91.4108 443.425 93.0093 443.425H141.877C143.475 443.425 144.769 444.719 144.769 446.318V463.156C144.766 464.754 143.471 466.049 141.873 466.049Z" fill="white"/>
<path d="M92.4829 374.294V307.596C92.4829 303.179 96.062 299.6 100.479 299.6C104.897 299.6 108.476 303.179 108.476 307.596V374.294" stroke="#2B4CBA" stroke-width="8" stroke-miterlimit="10" stroke-linecap="round" stroke-linejoin="round"/>
<path d="M108.479 374.294V349.226C108.479 344.808 112.059 341.229 116.476 341.229C120.893 341.229 124.472 344.808 124.472 349.226V374.294" stroke="#2B4CBA" stroke-width="8" stroke-miterlimit="10" stroke-linecap="round" stroke-linejoin="round"/>
<path d="M92.4829 374.298L71.7765 353.502C68.6536 350.368 63.5813 350.364 60.4545 353.491C57.3355 356.61 57.3316 361.662 60.4428 364.789L65.1096 369.475C75.3985 379.807 81.1765 393.795 81.1765 408.376V420.742C81.1765 424.442 82.0849 428.084 83.8238 431.347C87.742 438.707 95.4031 443.308 103.746 443.308H132.141C139.038 443.308 145.557 440.154 149.838 434.746L151.592 432.528C154.75 428.54 156.466 423.604 156.466 418.52V374.294V370.395C156.466 365.978 152.887 362.399 148.469 362.399C144.052 362.399 140.473 365.978 140.473 370.395V374.294" stroke="#2B4CBA" stroke-width="8" stroke-miterlimit="10" stroke-linecap="round" stroke-linejoin="round"/>
<path d="M124.472 374.294V359.81C124.472 355.393 128.051 351.814 132.469 351.814C136.886 351.814 140.465 355.393 140.465 359.81V374.294" stroke="#2B4CBA" stroke-width="8" stroke-miterlimit="10" stroke-linecap="round" stroke-linejoin="round"/>
<path d="M141.873 466.049H93.0093C91.4108 466.049 90.1165 464.754 90.1165 463.156V446.318C90.1165 444.719 91.4108 443.425 93.0093 443.425H141.877C143.475 443.425 144.769 444.719 144.769 446.318V463.156C144.766 464.754 143.471 466.049 141.873 466.049Z" stroke="#2B4CBA" stroke-width="8" stroke-miterlimit="10" stroke-linecap="round" stroke-linejoin="round"/>
<path d="M104.062 87.8132C107.267 85.9614 110.534 84.1797 113.872 82.4799C117.338 80.7138 120.831 79.0529 124.348 77.5013" stroke="#2B4CBA" stroke-width="8" stroke-miterlimit="10" stroke-linecap="round" stroke-linejoin="round"/>
<path d="M77.4961 106.149C80.3695 103.817 83.3209 101.548 86.3502 99.3493C89.4965 97.0608 92.6896 94.8776 95.9178 92.7957" stroke="#2B4CBA" stroke-width="8" stroke-miterlimit="10" stroke-linecap="round" stroke-linejoin="round"/>
<path d="M54.1228 128.41C56.5946 125.657 59.1561 122.956 61.8034 120.308C64.5559 117.556 67.363 114.901 70.2286 112.336" stroke="#2B4CBA" stroke-width="8" stroke-miterlimit="10" stroke-linecap="round" stroke-linejoin="round"/>
<path d="M34.5237 154.055C36.5354 150.948 38.6408 147.88 40.8436 144.851C43.1322 141.704 45.4909 138.64 47.9199 135.661" stroke="#2B4CBA" stroke-width="8" stroke-miterlimit="10" stroke-linecap="round" stroke-linejoin="round"/>
<path d="M19.1782 182.449C20.6793 179.065 22.2816 175.704 23.9815 172.371C25.7477 168.905 27.5996 165.509 29.5334 162.188" stroke="#2B4CBA" stroke-width="8" stroke-miterlimit="10" stroke-linecap="round" stroke-linejoin="round"/>
<path d="M8.46045 212.898C9.41565 209.322 10.4683 205.751 11.6263 202.192C12.8271 198.492 14.1254 194.847 15.5133 191.264" stroke="#2B4CBA" stroke-width="8" stroke-miterlimit="10" stroke-linecap="round" stroke-linejoin="round"/>
<path d="M2.63965 244.644C3.02173 240.964 3.50518 237.272 4.08999 233.576C4.6982 229.732 5.41168 225.931 6.22262 222.176" stroke="#2B4CBA" stroke-width="8" stroke-miterlimit="10" stroke-linecap="round" stroke-linejoin="round"/>
<path d="M1.85588 276.913C1.66094 273.218 1.55957 269.494 1.55957 265.752C1.55957 261.861 1.66874 257.997 1.87927 254.157" stroke="#2B4CBA" stroke-width="8" stroke-miterlimit="10" stroke-linecap="round" stroke-linejoin="round"/>
<path d="M6.13287 308.906C5.36091 305.288 4.67863 301.627 4.09381 297.927C3.4856 294.083 2.98656 290.251 2.59668 286.426" stroke="#2B4CBA" stroke-width="8" stroke-miterlimit="10" stroke-linecap="round" stroke-linejoin="round"/>
<path d="M15.3574 339.834C14.0279 336.38 12.7842 332.871 11.6263 329.311C10.4255 325.611 9.3338 321.9 8.34741 318.185" stroke="#2B4CBA" stroke-width="8" stroke-miterlimit="10" stroke-linecap="round" stroke-linejoin="round"/>
<path d="M29.311 368.941C27.4591 365.736 25.6774 362.469 23.9775 359.132C22.2114 355.666 20.5505 352.173 18.9988 348.656" stroke="#2B4CBA" stroke-width="8" stroke-miterlimit="10" stroke-linecap="round" stroke-linejoin="round"/>
<path d="M47.647 395.506C45.3155 392.633 43.0464 389.682 40.8475 386.653C38.559 383.506 36.3756 380.313 34.2937 377.085" stroke="#2B4CBA" stroke-width="8" stroke-miterlimit="10" stroke-linecap="round" stroke-linejoin="round"/>
<path d="M186.147 470.361C182.467 469.979 178.775 469.495 175.078 468.91C171.234 468.302 167.433 467.589 163.678 466.778" stroke="#2B4CBA" stroke-width="8" stroke-miterlimit="10" stroke-linecap="round" stroke-linejoin="round"/>
<path d="M218.417 471.14C214.721 471.339 211.002 471.437 207.255 471.437C203.364 471.437 199.5 471.327 195.66 471.117" stroke="#2B4CBA" stroke-width="8" stroke-miterlimit="10" stroke-linecap="round" stroke-linejoin="round"/>
<path d="M250.411 466.867C246.792 467.639 243.131 468.322 239.432 468.906C235.587 469.515 231.755 470.014 227.93 470.403" stroke="#2B4CBA" stroke-width="8" stroke-miterlimit="10" stroke-linecap="round" stroke-linejoin="round"/>
<path d="M281.34 457.639C277.885 458.969 274.376 460.212 270.817 461.37C267.117 462.571 263.405 463.663 259.69 464.649" stroke="#2B4CBA" stroke-width="8" stroke-miterlimit="10" stroke-linecap="round" stroke-linejoin="round"/>
<path d="M408.377 222.597C409.149 226.215 409.831 229.876 410.416 233.576C411.025 237.42 411.524 241.252 411.913 245.077" stroke="#2B4CBA" stroke-width="8" stroke-miterlimit="10" stroke-linecap="round" stroke-linejoin="round"/>
<path d="M399.149 191.665C400.478 195.12 401.722 198.628 402.88 202.188C404.081 205.888 405.173 209.599 406.159 213.315" stroke="#2B4CBA" stroke-width="8" stroke-miterlimit="10" stroke-linecap="round" stroke-linejoin="round"/>
<path d="M385.199 162.562C387.051 165.767 388.833 169.034 390.532 172.371C392.299 175.837 393.96 179.33 395.511 182.847" stroke="#2B4CBA" stroke-width="8" stroke-miterlimit="10" stroke-linecap="round" stroke-linejoin="round"/>
<path d="M366.863 135.997C369.195 138.87 371.464 141.821 373.663 144.85C375.951 147.997 378.134 151.19 380.216 154.418" stroke="#2B4CBA" stroke-width="8" stroke-miterlimit="10" stroke-linecap="round" stroke-linejoin="round"/>
<path d="M344.601 112.624C347.354 115.096 350.055 117.657 352.703 120.305C355.455 123.057 358.11 125.864 360.676 128.73" stroke="#2B4CBA" stroke-width="8" stroke-miterlimit="10" stroke-linecap="round" stroke-linejoin="round"/>
<path d="M318.955 93.0257C322.062 95.0374 325.13 97.1427 328.16 99.3454C331.306 101.634 334.371 103.993 337.349 106.421" stroke="#2B4CBA" stroke-width="8" stroke-miterlimit="10" stroke-linecap="round" stroke-linejoin="round"/>
<path d="M290.56 77.6806C293.944 79.1816 297.305 80.7839 300.638 82.4837C304.104 84.2498 307.5 86.1017 310.822 88.0354" stroke="#2B4CBA" stroke-width="8" stroke-miterlimit="10" stroke-linecap="round" stroke-linejoin="round"/>
<path d="M262.181 213.724H152.325C143.218 213.724 135.833 206.34 135.833 197.233V18.0507C135.833 8.94349 143.218 1.55945 152.325 1.55945H262.181C271.289 1.55945 278.673 8.94349 278.673 18.0507V197.233C278.673 206.34 271.289 213.724 262.181 213.724Z" fill="#E9E0E0" stroke="#2B4CBA" stroke-width="8" stroke-miterlimit="10" stroke-linecap="round" stroke-linejoin="round"/>
<path d="M136.617 186.356H277.893" stroke="#2B4CBA" stroke-width="8" stroke-miterlimit="10" stroke-linecap="round" stroke-linejoin="round"/>
<path d="M207.255 207.346C211.286 207.346 214.554 204.078 214.554 200.048C214.554 196.017 211.286 192.749 207.255 192.749C203.224 192.749 199.957 196.017 199.957 200.048C199.957 204.078 203.224 207.346 207.255 207.346Z" stroke="#2B4CBA" stroke-width="8" stroke-miterlimit="10" stroke-linecap="round" stroke-linejoin="round"/>
<path d="M146.263 88.3551H263.815" stroke="#2B4CBA" stroke-width="8" stroke-miterlimit="10" stroke-linecap="round" stroke-linejoin="round"/>
<path d="M146.263 107.38H263.815" stroke="#2B4CBA" stroke-width="8" stroke-miterlimit="10" stroke-linecap="round" stroke-linejoin="round"/>
<path d="M146.263 126.41H263.815" stroke="#2B4CBA" stroke-width="8" stroke-miterlimit="10" stroke-linecap="round" stroke-linejoin="round"/>
<path d="M146.263 145.435H263.815" stroke="#2B4CBA" stroke-width="8" stroke-miterlimit="10" stroke-linecap="round" stroke-linejoin="round"/>
<path d="M146.263 164.461H263.815" stroke="#2B4CBA" stroke-width="8" stroke-miterlimit="10" stroke-linecap="round" stroke-linejoin="round"/>
<path d="M220.659 50.8267H193.847C189.379 50.8267 185.757 54.4486 185.757 58.9164V74.5578H228.749V58.9164C228.753 54.4486 225.127 50.8267 220.659 50.8267Z" fill="#5A78DA" stroke="#2B4CBA" stroke-width="8" stroke-miterlimit="10" stroke-linecap="round" stroke-linejoin="round"/>
<path d="M207.255 50.8267C214.934 50.8267 221.158 44.6023 221.158 36.9241C221.158 29.2459 214.934 23.0215 207.255 23.0215C199.577 23.0215 193.352 29.2459 193.352 36.9241C193.352 44.6023 199.577 50.8267 207.255 50.8267Z" fill="#EDE9E9" stroke="#2B4CBA" stroke-width="8" stroke-miterlimit="10" stroke-linecap="round" stroke-linejoin="round"/>
<path d="M293.367 322.099L327.368 354.571L393.55 296.321L327.368 383.768L266.528 322.099H293.367Z" fill="#5A78DA" stroke="#2B4CBA" stroke-width="8" stroke-miterlimit="10" stroke-linecap="round" stroke-linejoin="round"/>
<path d="M305.816 463.066L271.979 416.333L329.368 410.392" stroke="#2B4CBA" stroke-width="10" stroke-miterlimit="10" stroke-linecap="round" stroke-linejoin="round"/>
<path d="M361.701 210.582L395.539 257.315L338.149 263.26" stroke="#2B4CBA" stroke-width="8" stroke-miterlimit="10" stroke-linecap="round" stroke-linejoin="round"/>
<path d="M250.703 393.752C239.584 377.561 233.077 357.955 233.077 336.824C233.077 281.221 278.154 236.145 333.759 236.145C357.042 236.145 378.481 244.048 395.535 257.319" stroke="#2B4CBA" stroke-width="8" stroke-miterlimit="10" stroke-linecap="round" stroke-linejoin="round"/>
<path d="M416.814 279.9C427.933 296.091 434.44 315.701 434.44 336.828C434.44 392.43 389.363 437.507 333.759 437.507C310.475 437.507 289.036 429.604 271.979 416.333" stroke="#2B4CBA" stroke-width="8" stroke-miterlimit="10" stroke-linecap="round" stroke-linejoin="round"/>
<path d="M425.185 336.824C425.185 387.315 384.252 428.247 333.759 428.247C316.304 428.247 299.995 423.358 286.123 414.871" stroke="#2B4CBA" stroke-width="8" stroke-miterlimit="10" stroke-linecap="round" stroke-linejoin="round"/>
<path d="M242.496 331.327C245.338 283.397 285.11 245.401 333.759 245.401C351.213 245.401 367.522 250.29 381.394 258.777" stroke="#2B4CBA" stroke-width="8" stroke-miterlimit="10" stroke-linecap="round" stroke-linejoin="round"/>
<path d="M212.967 287.97H40.6487C28.695 287.97 19.0027 278.278 19.0027 266.325V254.948C19.0027 242.995 28.695 233.303 40.6487 233.303H212.967C224.92 233.303 234.613 242.995 234.613 254.948V266.325C234.613 278.278 224.92 287.97 212.967 287.97Z" fill="#2B4CBA" stroke="#5A78DA" stroke-width="8" stroke-miterlimit="10" stroke-linecap="round" stroke-linejoin="round"/>
<path d="M212.745 273.424C219.807 273.424 225.532 267.699 225.532 260.637C225.532 253.574 219.807 247.849 212.745 247.849C205.682 247.849 199.957 253.574 199.957 260.637C199.957 267.699 205.682 273.424 212.745 273.424Z" stroke="#5A78DA" stroke-width="8" stroke-miterlimit="10" stroke-linecap="round" stroke-linejoin="round"/>
</g>
<defs>
<clipPath id="clip0_101_4068">
<rect width="436" height="473" fill="white"/>
</clipPath>
</defs>
</svg>
