<svg width="296" height="478" viewBox="0 0 296 478" fill="none" xmlns="http://www.w3.org/2000/svg">
<path d="M289.543 82.7641C285.231 68.4178 277.648 55.2463 266.794 43.2054C255.917 31.1646 241.083 21.2222 222.292 13.36C203.504 5.49777 179.628 1.56665 150.665 1.56665C127.562 1.56665 104.019 4.68494 80.0325 10.9215C56.0242 17.1803 35.1983 26.0807 17.5364 37.6487L40.5294 100.82L28.2059 110.807L46.0783 116.064C63.7181 106.824 79.7925 100.114 94.2942 95.9356C108.774 91.7791 124.161 89.699 140.476 89.699C156.768 89.699 169.106 93.6301 177.483 101.492C185.86 109.377 190.039 118.842 190.039 129.96C190.039 143.379 185.727 155.287 177.151 165.702C168.53 176.117 159.024 186.643 148.609 197.284C141.38 204.673 134.351 212.306 127.562 220.168C120.776 228.053 114.762 236.48 109.568 245.518C104.351 254.532 100.172 264.246 97.0114 274.661C93.829 285.076 92.26 296.755 92.26 309.701C92.26 313.88 92.3486 318.849 92.5923 324.635C92.6329 325.703 92.6882 326.741 92.751 327.768H75.857L94.2942 340.245H183.94C183.475 337.466 183.254 334.234 183.254 330.532C183.254 326.826 183.254 324.047 183.254 322.196C183.254 314.334 184.845 306.587 188.005 298.95C191.165 291.313 195.145 284.038 199.9 277.081C204.652 270.146 209.961 263.547 215.86 257.315C221.742 251.056 227.401 245.159 232.839 239.602C240.068 232.213 247.54 224.355 255.234 216.016C262.928 207.681 269.736 198.913 275.617 189.651C281.498 180.388 286.36 170.335 290.207 159.447C294.054 148.581 296 136.673 296 123.705C296 110.755 293.833 97.1105 289.543 82.7641Z" fill="#2B4CBA"/>
<path d="M121.496 85.2912C105.374 85.2912 90.1667 87.3011 75.857 91.3245C61.5251 95.3702 45.6427 101.862 28.2059 110.806L0 34.9182C17.4552 23.7234 38.0374 15.1075 61.7651 9.05191C85.467 3.01854 108.737 0 131.567 0C160.187 0 183.785 3.8055 202.356 11.4128C220.926 19.0201 235.586 28.641 246.337 40.2939C257.065 51.9469 264.556 64.6935 268.817 78.578C273.055 92.4625 275.196 105.667 275.196 118.196C275.196 130.747 273.273 142.27 269.474 152.785C265.671 163.322 260.864 173.054 255.053 182.017C249.242 190.981 242.512 199.463 234.91 207.533C227.309 215.602 219.921 223.209 212.778 230.358C207.402 235.738 201.809 241.442 195.998 247.501C190.165 253.535 184.922 259.919 180.223 266.632C175.527 273.368 171.591 280.406 168.468 287.795C165.344 295.185 163.772 302.685 163.772 310.292C163.772 312.084 163.772 314.774 163.772 318.361C163.772 321.949 163.99 325.074 164.447 327.764H75.857C74.9377 323.283 74.395 318.254 74.1735 312.657C73.9335 307.059 73.8449 302.249 73.8449 298.203C73.8449 285.675 75.3955 274.373 78.541 264.29C81.6643 254.211 85.7956 244.808 90.9494 236.085C96.0848 227.34 102.025 219.186 108.733 211.552C115.441 203.945 122.389 196.552 129.533 189.403C139.822 179.106 149.218 168.916 157.739 158.837C166.216 148.758 170.476 137.234 170.476 124.248C170.476 113.489 166.349 104.33 158.068 96.7003C149.791 89.0967 137.596 85.2912 121.496 85.2912Z" fill="#1E347D"/>
<path d="M190.073 427.328C190.073 443.503 184.841 455.983 174.375 464.788C163.912 473.611 152.083 478.004 138.877 478.004C125.653 478.004 113.828 473.611 103.365 464.788C92.9172 455.983 87.6858 443.503 87.6858 427.328C87.6858 411.171 92.9172 398.69 103.365 389.867C119.473 376.264 143.304 373.234 162.162 382.781C178.897 391.253 190.073 408.455 190.073 427.328Z" fill="#2B4CBA"/>
<path d="M172.536 427.328C172.536 443.503 167.305 455.984 156.838 464.788C146.376 473.611 134.547 478.004 121.341 478.004C108.117 478.004 96.2916 473.611 85.8288 464.788C75.3808 455.984 70.1494 443.503 70.1494 427.328C70.1494 411.171 75.3808 398.69 85.8288 389.868C96.2916 381.063 108.12 376.652 121.341 376.652C134.547 376.652 146.372 381.063 156.838 389.868C167.305 398.69 172.536 411.171 172.536 427.328Z" fill="#1E347D"/>
</svg>
