<svg xmlns="http://www.w3.org/2000/svg" width="15" height="14" viewBox="0 0 15 14" fill="none">
<path fill-rule="evenodd" clip-rule="evenodd" d="M1.59594 2.26256C1.92413 1.93437 2.36925 1.75 2.83337 1.75H6.91671C7.23887 1.75 7.50004 2.01117 7.50004 2.33333C7.50004 2.6555 7.23887 2.91667 6.91671 2.91667H2.83337C2.67866 2.91667 2.53029 2.97812 2.42089 3.08752C2.3115 3.19692 2.25004 3.34529 2.25004 3.5V11.6667C2.25004 11.8214 2.3115 11.9697 2.42089 12.0791C2.53029 12.1885 2.67866 12.25 2.83337 12.25H11C11.1547 12.25 11.3031 12.1885 11.4125 12.0791C11.5219 11.9697 11.5834 11.8214 11.5834 11.6667V7.58333C11.5834 7.26117 11.8445 7 12.1667 7C12.4889 7 12.75 7.26117 12.75 7.58333V11.6667C12.75 12.1308 12.5657 12.5759 12.2375 12.9041C11.9093 13.2323 11.4642 13.4167 11 13.4167H2.83337C2.36924 13.4167 1.92413 13.2323 1.59594 12.9041C1.26775 12.5759 1.08337 12.1308 1.08337 11.6667V3.5C1.08337 3.03587 1.26775 2.59075 1.59594 2.26256Z" fill="white"/>
<path fill-rule="evenodd" clip-rule="evenodd" d="M12.1667 1.67924C11.9932 1.67924 11.8269 1.74815 11.7042 1.87082L6.27678 7.29824L5.96843 8.53163L7.20182 8.22328L12.6292 2.79586C12.7519 2.6732 12.8208 2.50682 12.8208 2.33334C12.8208 2.15986 12.7519 1.99349 12.6292 1.87082C12.5066 1.74815 12.3402 1.67924 12.1667 1.67924ZM10.8792 1.04586C11.2207 0.704404 11.6838 0.512573 12.1667 0.512573C12.6496 0.512573 13.1127 0.704404 13.4542 1.04586C13.7957 1.38733 13.9875 1.85045 13.9875 2.33334C13.9875 2.81624 13.7957 3.27936 13.4542 3.62082L7.91253 9.16249C7.83777 9.23725 7.7441 9.29029 7.64153 9.31593L5.3082 9.89926C5.10941 9.94896 4.89913 9.89071 4.75424 9.74582C4.60935 9.60094 4.55111 9.39065 4.6008 9.19187L5.18414 6.85853C5.20978 6.75596 5.26281 6.66229 5.33757 6.58753L10.8792 1.04586Z" fill="white"/>
</svg>