<svg xmlns="http://www.w3.org/2000/svg" width="18" height="17" viewBox="0 0 18 17" fill="none">
<path fill-rule="evenodd" clip-rule="evenodd" d="M2.90901 0.40901C3.33097 -0.0129473 3.90326 -0.25 4.5 -0.25H10.5C10.6989 -0.25 10.8897 -0.170982 11.0303 -0.0303301L15.5303 4.46967C15.671 4.61032 15.75 4.80109 15.75 5V14C15.75 14.5967 15.5129 15.169 15.091 15.591C14.669 16.0129 14.0967 16.25 13.5 16.25H4.5C3.90326 16.25 3.33097 16.0129 2.90901 15.591C2.48705 15.169 2.25 14.5967 2.25 14V2C2.25 1.40326 2.48705 0.830967 2.90901 0.40901ZM4.5 1.25C4.30109 1.25 4.11032 1.32902 3.96967 1.46967C3.82902 1.61032 3.75 1.80109 3.75 2V14C3.75 14.1989 3.82902 14.3897 3.96967 14.5303C4.11032 14.671 4.30109 14.75 4.5 14.75H13.5C13.6989 14.75 13.8897 14.671 14.0303 14.5303C14.171 14.3897 14.25 14.1989 14.25 14V5.31066L10.1893 1.25H4.5Z" fill="#637381"/>
<path fill-rule="evenodd" clip-rule="evenodd" d="M10.5 -0.25C10.9142 -0.25 11.25 0.0857864 11.25 0.5V4.25H15C15.4142 4.25 15.75 4.58579 15.75 5C15.75 5.41421 15.4142 5.75 15 5.75H10.5C10.0858 5.75 9.75 5.41421 9.75 5V0.5C9.75 0.0857864 10.0858 -0.25 10.5 -0.25Z" fill="#637381"/>
<path fill-rule="evenodd" clip-rule="evenodd" d="M5.25 8.75C5.25 8.33579 5.58579 8 6 8H12C12.4142 8 12.75 8.33579 12.75 8.75C12.75 9.16421 12.4142 9.5 12 9.5H6C5.58579 9.5 5.25 9.16421 5.25 8.75Z" fill="#637381"/>
<path fill-rule="evenodd" clip-rule="evenodd" d="M5.25 11.75C5.25 11.3358 5.58579 11 6 11H12C12.4142 11 12.75 11.3358 12.75 11.75C12.75 12.1642 12.4142 12.5 12 12.5H6C5.58579 12.5 5.25 12.1642 5.25 11.75Z" fill="#637381"/>
<path fill-rule="evenodd" clip-rule="evenodd" d="M5.25 5.75C5.25 5.33579 5.58579 5 6 5H7.5C7.91421 5 8.25 5.33579 8.25 5.75C8.25 6.16421 7.91421 6.5 7.5 6.5H6C5.58579 6.5 5.25 6.16421 5.25 5.75Z" fill="#637381"/>
</svg>