<svg width="43" height="43" viewBox="0 0 43 43" fill="none" xmlns="http://www.w3.org/2000/svg">
<path d="M22.004 0.370209C22.3432 0.496593 22.5167 0.876077 22.3913 1.21817C21.606 3.36059 21.4566 5.26478 21.9293 6.9504L21.978 6.9634L28.438 9.06355C28.8558 7.06836 30.0268 5.4942 31.9278 4.38008C32.2403 4.19651 32.6412 4.30372 32.8232 4.61888C33.0052 4.93403 32.8989 5.33821 32.586 5.52149C30.9658 6.47151 30.0093 7.77436 29.6925 9.47195L42.2718 13.5618C42.2734 13.5621 42.2751 13.5628 42.2764 13.5631L42.2829 13.5657C42.2848 13.5664 42.2871 13.567 42.289 13.5677C42.3059 13.5732 42.3222 13.5794 42.3384 13.5865C42.3491 13.5907 42.3599 13.5956 42.3699 13.6005C42.3715 13.6018 42.3738 13.6027 42.3758 13.604C42.5974 13.7122 42.7166 13.9208 42.7345 14.1372L42.7367 14.1941V33.879C42.7367 35.0252 42.0031 36.0405 40.9212 36.3925L23.9885 41.8982C22.5505 42.3657 21.0027 42.3657 19.5646 41.8982L2.63194 36.3925C1.55001 36.0406 0.816406 35.0252 0.816406 33.879V14.1941L0.818681 14.1372C0.83655 13.9208 0.955785 13.7122 1.17672 13.6037C1.17932 13.6027 1.1816 13.6018 1.18354 13.6008C1.21051 13.5872 1.23975 13.5755 1.2703 13.5657L1.21474 13.5865C1.23098 13.5794 1.24723 13.5732 1.26412 13.5673L1.2703 13.5657L1.27679 13.5631C1.27809 13.5628 1.27972 13.5621 1.28134 13.5618L12.5382 9.90213C11.4631 8.76854 10.8324 7.12651 10.6437 5.0098C10.6112 4.64656 10.8773 4.32588 11.2376 4.29307C11.598 4.26058 11.916 4.52862 11.9485 4.89153C12.1415 7.05632 12.8205 8.55055 13.9814 9.43237L20.6545 7.26301C20.1181 5.3084 20.2913 3.13447 21.1617 0.760419C21.2871 0.418621 21.6636 0.243829 22.0031 0.370213L22.004 0.370209ZM41.4269 15.1004L36.1869 16.8042L36.1873 27.71C36.1873 28.2549 35.8555 28.741 35.3578 28.9385L35.2779 28.9671L29.3829 30.8756C28.6941 31.0984 27.9562 30.7163 27.735 30.022C27.6934 29.8917 27.6723 29.7553 27.6723 29.6182V19.5732L22.4323 21.2769V34.6614C22.4323 35.0259 22.1389 35.3216 21.7773 35.3216C21.4413 35.3216 21.1645 35.0668 21.1268 34.7384L21.1223 34.6614L21.122 21.2769L17.5094 20.1021L2.12705 15.1005L2.12738 33.8789C2.12738 34.3864 2.41491 34.8425 2.85645 35.0624L2.93573 35.0988L3.03515 35.1355L19.9678 40.6413C21.1443 41.0237 22.4108 41.0237 23.5873 40.6413L40.5199 35.1355C41.0609 34.9594 41.4277 34.4519 41.4277 33.8789L41.4269 15.1004ZM21.1049 8.50335L15.54 10.3127C17.2487 11.3979 18.2321 13.3541 18.4989 16.1106C18.5343 16.4735 18.2708 16.7965 17.9108 16.8319C17.5508 16.867 17.2304 16.6015 17.1954 16.2386C16.9432 13.6345 16.0218 11.988 14.4415 11.2052L14.2865 11.1321C14.1156 11.0558 13.9506 10.9722 13.7917 10.8819L3.60533 14.1939L21.7773 20.1022L39.9485 14.1939L29.5716 10.8195L29.5693 10.9138C29.4641 13.5019 28.3191 15.4468 26.1692 16.6717L26.0175 16.7562C25.6991 16.9287 25.3018 16.8085 25.1305 16.4875C24.959 16.1661 25.0782 15.7659 25.397 15.593C27.2863 14.5686 28.2291 12.9532 28.2661 10.6568L28.273 10.4147C28.2733 10.4092 28.2736 10.4033 28.2739 10.3978L22.5642 8.5407C23.4778 10.7123 23.4121 12.9278 22.3686 15.1378C22.2133 15.4669 21.8224 15.6069 21.4959 15.4503C21.1691 15.2937 21.0303 14.8996 21.186 14.5705C22.0954 12.6435 22.1278 10.7678 21.2854 8.8896L21.1882 8.68069C21.16 8.62188 21.132 8.56275 21.105 8.50329L21.1049 8.50335Z" fill="black"/>
</svg>
