  <svg xmlns="http://www.w3.org/2000/svg" width="24" height="26" viewBox="0 0 24 26" fill="none">
  <path d="M20.6158 17.3333V8.66666C20.6154 8.28671 20.5282 7.91354 20.3628 7.58459C20.1975 7.25564 19.9598 6.98247 19.6736 6.7925L13.0786 2.45916C12.7922 2.269 12.4673 2.16888 12.1365 2.16888C11.8057 2.16888 11.4808 2.269 11.1944 2.45916L4.59937 6.7925C4.3132 6.98247 4.07552 7.25564 3.91016 7.58459C3.74479 7.91354 3.65757 8.28671 3.65723 8.66666V17.3333C3.65757 17.7133 3.74479 18.0865 3.91016 18.4154C4.07552 18.7444 4.3132 19.0175 4.59937 19.2075L11.1944 23.5408C11.4808 23.731 11.8057 23.8311 12.1365 23.8311C12.4673 23.8311 12.7922 23.731 13.0786 23.5408L19.6736 19.2075C19.9598 19.0175 20.1975 18.7444 20.3628 18.4154C20.5282 18.0865 20.6154 17.7133 20.6158 17.3333Z" stroke="#13C296" stroke-width="2.5" stroke-linecap="round" stroke-linejoin="round"/>
  <path d="M3.91162 7.53998L12.1365 13.0108L20.3614 7.53998" stroke="#13C296" stroke-width="2.5" stroke-linecap="round" stroke-linejoin="round"/>
  <path d="M12.1365 23.92V13" stroke="#13C296" stroke-width="2.5" stroke-linecap="round" stroke-linejoin="round"/>
</svg>