Copy
<svg xmlns="http://www.w3.org/2000/svg" width="26" height="26" viewBox="0 0 26 26" fill="none">
<g clip-path="url(#clip0_74_4494)">
<path fill-rule="evenodd" clip-rule="evenodd" d="M1.46857 16.6353C2.51565 15.5882 3.93579 15 5.41658 15H14.0833C15.564 15 16.9842 15.5882 18.0313 16.6353C19.0783 17.6824 19.6666 19.1025 19.6666 20.5833V22.75C19.6666 23.4404 19.1069 24 18.4166 24C17.7262 24 17.1666 23.4404 17.1666 22.75V20.5833C17.1666 19.7656 16.8417 18.9813 16.2635 18.4031C15.6853 17.8249 14.901 17.5 14.0833 17.5H5.41658C4.59883 17.5 3.81458 17.8249 3.23634 18.4031C2.6581 18.9813 2.33325 19.7656 2.33325 20.5833V22.75C2.33325 23.4404 1.77361 24 1.08325 24C0.392896 24 -0.166748 23.4404 -0.166748 22.75V20.5833C-0.166748 19.1025 0.421495 17.6824 1.46857 16.6353Z" fill="#3056D3"/>
<path fill-rule="evenodd" clip-rule="evenodd" d="M9.75008 4.5C8.0472 4.5 6.66675 5.88046 6.66675 7.58333C6.66675 9.28621 8.0472 10.6667 9.75008 10.6667C11.453 10.6667 12.8334 9.28621 12.8334 7.58333C12.8334 5.88046 11.453 4.5 9.75008 4.5ZM4.16675 7.58333C4.16675 4.49974 6.66649 2 9.75008 2C12.8337 2 15.3334 4.49974 15.3334 7.58333C15.3334 10.6669 12.8337 13.1667 9.75008 13.1667C6.66649 13.1667 4.16675 10.6669 4.16675 7.58333Z" fill="#3056D3"/>
<path fill-rule="evenodd" clip-rule="evenodd" d="M20.4563 16.0783C20.6288 15.4099 21.3106 15.0079 21.9791 15.1805C23.1769 15.4898 24.238 16.1881 24.996 17.1658C25.7539 18.1435 26.1656 19.3453 26.1666 20.5824V22.75C26.1666 23.4403 25.6069 24 24.9166 24C24.2262 24 23.6666 23.4403 23.6666 22.75V20.5837C23.6659 19.9007 23.4386 19.2373 23.0201 18.6975C22.6016 18.1575 22.0155 17.7719 21.3541 17.6011C20.6856 17.4285 20.2837 16.7467 20.4563 16.0783Z" fill="#3056D3"/>
<path fill-rule="evenodd" clip-rule="evenodd" d="M16.1224 3.08075C16.2936 2.41197 16.9746 2.00863 17.6434 2.17987C18.8444 2.48737 19.9088 3.18585 20.669 4.16517C21.4292 5.1445 21.8418 6.34898 21.8418 7.58872C21.8418 8.82846 21.4292 10.0329 20.669 11.0123C19.9088 11.9916 18.8444 12.6901 17.6434 12.9976C16.9746 13.1688 16.2936 12.7655 16.1224 12.0967C15.9511 11.4279 16.3545 10.7469 17.0233 10.5757C17.6865 10.4059 18.2744 10.0202 18.6941 9.47934C19.1139 8.93851 19.3418 8.27335 19.3418 7.58872C19.3418 6.90409 19.1139 6.23893 18.6941 5.69811C18.2744 5.15728 17.6865 4.77156 17.0233 4.60174C16.3545 4.43051 15.9511 3.74954 16.1224 3.08075Z" fill="#3056D3"/>
</g>
<defs>
<clipPath id="clip0_74_4494">
<rect width="26" height="26" fill="white"/>
</clipPath>
</defs>
</svg>